<?xml version="1.0" standalone="no"?>
<!DOCTYPE svg PUBLIC "-//W3C//DTD SVG 20010904//EN"
 "http://www.w3.org/TR/2001/REC-SVG-20010904/DTD/svg10.dtd">
<svg version="1.0" xmlns="http://www.w3.org/2000/svg"
 width="256.000000pt" height="256.000000pt" viewBox="0 0 256.000000 256.000000"
 preserveAspectRatio="xMidYMid meet">
<metadata>
Created by potrace 1.14, written by Peter Selinger 2001-2017
</metadata>
<g transform="translate(0.000000,256.000000) scale(0.100000,-0.100000)"
fill="#000000" stroke="none">
<path d="M471 2223 c-35 -21 -83 -55 -108 -77 -94 -82 -189 -250 -212 -376 -7
-36 -14 -75 -17 -87 -3 -18 -11 -23 -34 -23 l-29 0 -3 -151 c-2 -92 1 -153 7
-157 5 -3 24 -5 41 -3 24 2 36 -4 48 -21 9 -12 16 -28 16 -35 0 -17 52 -127
62 -131 4 -2 8 -9 8 -15 0 -17 119 -151 171 -192 55 -44 170 -95 217 -95 12 0
22 -3 22 -8 0 -8 138 -118 173 -137 99 -55 120 -65 133 -65 8 0 22 -4 32 -10
97 -53 388 -54 517 -1 11 5 38 14 60 21 49 16 150 80 231 147 42 36 72 52 100
56 71 10 98 20 159 58 66 42 151 126 205 204 36 51 45 68 74 140 28 66 31 70
77 75 l44 5 0 155 0 155 -30 5 c-28 5 -31 9 -45 80 -18 84 -38 150 -51 165 -5
5 -9 15 -9 22 0 33 -177 263 -202 263 -5 0 -26 11 -48 25 -22 14 -48 25 -59
25 -11 0 -23 5 -26 10 -4 6 -62 10 -140 10 -78 0 -136 -4 -140 -10 -3 -5 -15
-10 -25 -10 -10 0 -25 -7 -34 -15 -8 -8 -21 -15 -28 -15 -7 0 -24 -9 -38 -20
-27 -21 -65 -26 -75 -10 -3 6 -22 10 -41 10 -20 0 -45 5 -56 11 -28 15 -297
16 -325 1 -12 -7 -36 -12 -52 -12 -17 0 -40 -6 -51 -12 -14 -9 -23 -10 -28 -3
-4 6 -34 24 -67 39 -33 16 -68 33 -77 38 -10 4 -78 8 -151 8 l-132 0 -64 -37z
m1299 -15 c-19 -5 -48 -16 -63 -24 -16 -8 -35 -14 -42 -14 -16 0 -79 -32 -83
-42 -2 -5 -11 -8 -19 -8 -14 0 -14 3 2 20 10 11 24 20 32 20 7 0 13 5 13 10 0
6 9 10 19 10 11 0 23 5 26 10 3 6 17 10 30 10 13 0 30 6 36 13 7 8 26 11 48 8
l36 -4 -35 -9z m-980 2 c0 -5 -4 -10 -9 -10 -6 0 -13 5 -16 10 -3 6 1 10 9 10
9 0 16 -4 16 -10z m113 -39 c46 -24 107 -71 93 -71 -2 0 -33 16 -69 35 -36 19
-71 35 -79 35 -8 0 -23 7 -34 15 -37 28 29 18 89 -14z m464 -45 c4 -3 30 -6
60 -6 53 0 53 0 47 -26 -4 -14 -19 -39 -34 -54 -52 -53 -160 -302 -160 -369 0
-14 -5 -33 -10 -41 -8 -12 -10 -11 -10 7 0 46 -41 176 -87 281 -8 18 -39 68
-69 112 -30 44 -54 82 -54 85 0 3 20 5 44 5 25 0 47 3 49 8 6 8 215 7 224 -2z
m173 -16 c0 -5 -4 -10 -10 -10 -5 0 -10 5 -10 10 0 6 5 10 10 10 6 0 10 -4 10
-10z m-1077 -62 c-8 -14 -10 -19 -12 -43 0 -8 -9 -15 -19 -15 -10 0 -23 -12
-29 -27 -14 -32 -35 -65 -45 -73 -13 -10 -58 -104 -58 -122 0 -9 -4 -19 -9
-22 -5 -3 -11 -20 -14 -38 -3 -18 -10 -51 -16 -73 -14 -51 -14 -168 0 -220 6
-22 14 -58 18 -80 10 -58 79 -192 118 -231 18 -18 33 -42 33 -54 0 -13 7 -20
19 -20 21 0 37 -28 23 -42 -5 -5 -14 -2 -22 7 -7 8 -17 15 -22 15 -30 0 -125
137 -163 233 -28 71 -55 208 -55 277 0 73 27 208 55 277 28 70 102 182 125
191 18 7 40 28 40 38 0 6 30 33 38 34 2 0 0 -6 -5 -12z m1663 -53 c-3 -9 -11
-13 -17 -10 -6 4 -8 13 -5 21 3 8 1 14 -5 14 -6 0 -7 5 -3 11 10 17 38 -16 30
-36z m-1241 -1 c57 -28 135 -91 135 -109 0 -7 6 -18 13 -24 8 -6 24 -32 36
-58 13 -27 27 -56 32 -65 5 -10 9 -37 9 -61 0 -24 5 -48 11 -54 10 -10 9 -82
-1 -74 -6 5 -98 -45 -122 -67 -44 -38 2 -38 90 -1 l44 19 -6 -47 c-11 -95 -18
-133 -27 -139 -5 -3 -9 -13 -9 -22 0 -17 -20 -41 -75 -91 -32 -30 -44 -20 -22
18 35 60 9 170 -44 184 -11 3 -23 15 -26 27 -7 25 -2 25 -153 -8 -52 -11 -112
-23 -132 -27 -21 -3 -38 -10 -38 -16 0 -11 109 -1 126 12 19 16 23 -2 8 -43
-27 -78 -13 -133 48 -183 l33 -27 -50 7 c-59 8 -146 48 -193 89 -33 29 -56 30
-31 0 7 -9 18 -25 24 -37 5 -11 19 -25 30 -31 11 -6 22 -14 25 -17 40 -48 219
-75 293 -44 91 38 63 -5 -39 -61 -31 -17 -105 -22 -160 -12 -27 5 -59 9 -71 9
-16 -1 -21 4 -17 14 4 10 0 15 -15 15 -12 0 -21 4 -21 10 0 6 -18 7 -44 4 -41
-6 -45 -4 -87 37 -70 70 -91 99 -121 170 -94 225 -46 476 123 635 75 70 85 74
53 18 -71 -127 -99 -193 -87 -205 6 -6 17 7 32 36 12 25 27 45 32 45 5 0 9 7
9 15 0 23 51 95 66 95 8 0 14 -11 14 -25 0 -14 3 -25 8 -25 6 0 51 65 76 111
24 43 136 45 221 3z m963 -35 c23 -33 42 -69 42 -79 0 -16 5 -19 32 -13 22 4
29 3 24 -6 -4 -6 -12 -9 -17 -6 -5 4 -9 -12 -9 -34 0 -44 18 -65 27 -32 7 28
53 30 53 2 0 -24 13 -33 34 -25 36 14 11 101 -55 196 -11 14 -19 29 -19 32 0
13 25 5 56 -19 18 -14 37 -25 41 -25 11 0 60 -53 89 -95 33 -48 74 -174 84
-258 16 -139 -10 -269 -75 -372 -35 -55 -127 -145 -147 -144 -10 0 -10 2 0 6
6 2 12 9 12 15 0 6 18 28 39 48 24 23 44 53 50 76 17 69 31 170 31 233 0 92
-27 75 -36 -23 -2 -23 -7 -68 -10 -101 -3 -33 -12 -74 -20 -92 -8 -17 -14 -38
-14 -46 0 -10 -8 -13 -23 -10 -19 4 -40 -11 -98 -66 -46 -45 -82 -71 -96 -71
-12 0 -25 -4 -28 -10 -3 -5 -35 -10 -70 -10 -35 0 -67 5 -70 10 -3 6 -13 10
-21 10 -8 0 -20 5 -27 10 -7 6 -23 20 -37 32 l-25 21 25 -8 c75 -22 270 -11
270 16 0 5 6 9 13 9 13 1 107 82 107 93 0 15 -35 5 -113 -33 -81 -39 -167 -61
-167 -43 0 5 14 17 30 26 57 34 76 111 44 176 -19 39 -16 44 22 32 51 -16 166
-22 161 -8 -4 14 -45 24 -104 26 -23 0 -52 5 -65 10 -13 5 -57 16 -98 26 -88
20 -87 19 -257 98 -20 9 -23 18 -23 74 0 35 4 63 10 63 6 0 10 18 10 39 0 22
5 43 10 46 6 3 10 13 10 20 0 22 64 116 107 157 56 54 127 86 194 87 l55 1 42
-61z m316 19 c59 -60 126 -215 145 -335 18 -115 11 -207 -27 -353 -20 -79 -89
-188 -142 -228 -20 -15 -38 -31 -39 -37 -2 -16 -41 -10 -41 6 0 6 7 9 14 6 11
-4 13 -1 9 10 -5 12 -2 15 9 11 10 -4 15 -1 14 10 0 9 5 16 12 15 6 -2 12 3
12 11 0 8 15 32 33 53 27 34 54 85 88 168 28 71 36 272 14 367 -20 89 -39 133
-93 217 -23 35 -42 70 -42 78 0 16 18 17 34 1z m-2044 -374 c0 -8 -4 -14 -10
-14 -5 0 -10 9 -10 21 0 11 5 17 10 14 6 -3 10 -13 10 -21z m2300 0 c0 -8 -4
-14 -10 -14 -5 0 -10 9 -10 21 0 11 5 17 10 14 6 -3 10 -13 10 -21z m-2300
-69 c0 -8 -4 -15 -10 -15 -5 0 -10 7 -10 15 0 8 5 15 10 15 6 0 10 -7 10 -15z
m2300 0 c0 -8 -4 -15 -10 -15 -5 0 -10 7 -10 15 0 8 5 15 10 15 6 0 10 -7 10
-15z m-2300 -71 c0 -8 -4 -14 -10 -14 -5 0 -10 9 -10 21 0 11 5 17 10 14 6 -3
10 -13 10 -21z m1438 -24 c22 0 22 -1 -12 -37 -31 -33 -45 -66 -48 -118 -2
-17 14 -69 25 -82 21 -28 -12 -12 -37 17 -52 63 -106 237 -80 262 3 3 33 -5
67 -18 33 -13 71 -24 85 -24z m862 24 c0 -8 -4 -14 -10 -14 -5 0 -10 9 -10 21
0 11 5 17 10 14 6 -3 10 -13 10 -21z m0 -64 c0 -11 -4 -20 -10 -20 -5 0 -10 9
-10 20 0 11 5 20 10 20 6 0 10 -9 10 -20z m-2300 -5 c0 -8 -4 -15 -10 -15 -5
0 -10 7 -10 15 0 8 5 15 10 15 6 0 10 -7 10 -15z m1160 -70 c0 -19 4 -44 9
-57 5 -13 17 -48 26 -78 21 -68 92 -212 111 -223 8 -4 14 -17 14 -27 0 -17 -7
-20 -54 -20 -35 0 -58 -5 -66 -15 -7 -8 -16 -13 -20 -10 -4 3 -13 -2 -20 -10
-7 -8 -18 -15 -26 -15 -7 0 -34 -7 -60 -16 -26 -9 -58 -13 -72 -9 -25 6 -25 7
19 36 49 32 57 54 19 54 -31 0 -71 24 -52 31 6 3 12 12 12 20 0 8 4 14 8 14
10 0 76 139 91 190 5 19 17 59 25 89 9 29 16 62 16 73 0 10 5 16 10 13 6 -3
10 -21 10 -40z m410 17 c0 -10 -6 -26 -13 -37 -18 -23 -30 -6 -21 30 7 29 34
34 34 7z m-90 -118 c0 -8 -5 -12 -10 -9 -6 4 -8 11 -5 16 9 14 15 11 15 -7z"/>
<path d="M407 1713 c-4 -3 -7 -22 -7 -42 0 -41 15 -31 23 17 6 30 -1 41 -16
25z"/>
<path d="M1082 1690 c0 -14 2 -19 5 -12 2 6 2 18 0 25 -3 6 -5 1 -5 -13z"/>
<path d="M387 1623 c-12 -11 -8 -293 4 -293 7 0 8 28 4 88 -3 48 -2 115 3 150
8 58 5 72 -11 55z"/>
<path d="M1062 1600 c0 -14 2 -19 5 -12 2 6 2 18 0 25 -3 6 -5 1 -5 -13z"/>
<path d="M510 1280 c0 -5 5 -10 10 -10 6 0 10 5 10 10 0 6 -4 10 -10 10 -5 0
-10 -4 -10 -10z"/>
<path d="M2010 1666 c0 -8 5 -18 10 -21 6 -3 10 3 10 14 0 12 -4 21 -10 21 -5
0 -10 -6 -10 -14z"/>
<path d="M275 745 c-20 -17 -43 -25 -67 -25 -31 0 -46 -8 -78 -40 -22 -22 -40
-44 -40 -50 0 -5 -8 -10 -17 -10 -10 0 -30 -15 -45 -32 l-28 -33 0 -177 0
-178 220 0 c140 0 220 -4 220 -10 0 -5 -25 -10 -55 -10 l-55 0 0 -90 0 -90
1115 0 1115 0 0 184 c0 138 -3 186 -12 189 -10 4 -10 6 0 6 13 1 18 161 4 161
-4 0 -12 10 -17 23 -6 12 -24 29 -42 37 -18 8 -37 27 -44 42 -14 34 -45 55
-95 63 -21 4 -50 15 -64 23 -67 44 -118 54 -158 32 -9 -5 -35 -17 -57 -26 -22
-10 -42 -20 -45 -23 -3 -4 -16 -12 -30 -19 -14 -7 -41 -27 -60 -44 -66 -58
-165 -134 -194 -148 -17 -9 -56 -15 -95 -14 -59 0 -73 5 -124 37 -97 63 -126
47 -127 -70 0 -39 4 -73 9 -75 5 -1 13 -15 16 -30 6 -22 4 -28 -9 -28 -20 0
-20 0 0 -39 15 -30 15 -34 1 -49 -14 -13 -21 -13 -43 -4 -25 12 -26 15 -22 84
l3 72 -45 1 c-25 1 -67 5 -95 9 l-50 8 -21 -49 c-12 -27 -25 -63 -29 -81 -8
-38 -25 -43 -25 -7 0 45 -40 119 -55 103 -2 -2 3 -32 12 -66 19 -77 12 -90
-44 -76 l-38 9 3 52 c5 76 -5 113 -31 113 -21 1 -21 1 -2 12 10 6 31 24 45 38
14 15 39 35 55 44 17 9 38 22 48 29 45 30 64 -76 25 -144 -12 -21 -18 -42 -15
-46 9 -9 47 32 47 51 0 8 5 18 10 21 14 9 12 96 -3 128 -18 38 -54 52 -78 31
-20 -18 -54 -39 -79 -49 -8 -4 -23 -11 -32 -16 -22 -11 -138 -12 -138 -1 0 5
-17 18 -38 30 -37 20 -55 35 -118 92 -29 26 -99 76 -149 107 -50 31 -92 43
-149 43 -50 -1 -67 -5 -91 -25z m63 -50 c6 -14 16 -25 22 -25 5 0 10 -9 10
-20 0 -10 5 -29 11 -42 7 -18 6 -32 -6 -58 -34 -78 -55 -100 -93 -100 -40 0
-60 27 -68 91 -5 48 -3 60 21 104 15 27 33 55 39 62 19 21 52 15 64 -12z
m1932 5 c31 -17 70 -110 70 -167 0 -54 -29 -99 -57 -89 -8 3 -22 6 -32 6 -30
0 -55 63 -48 125 3 31 12 63 19 72 7 9 11 26 10 39 -4 26 8 30 38 14z m-2096
-75 c3 -13 2 -43 -3 -65 -11 -50 19 -145 55 -173 24 -19 59 -119 50 -143 -6
-15 -53 -19 -73 -6 -7 4 -13 37 -15 77 -3 70 -3 70 -37 81 -18 6 -38 19 -44
29 -14 26 -13 143 1 157 7 7 12 21 12 31 0 20 29 49 41 41 4 -2 10 -15 13 -29z
m2266 -35 c0 -10 6 -33 14 -51 11 -26 12 -47 5 -84 -5 -27 -13 -53 -17 -57 -4
-4 -24 -3 -45 3 -34 9 -36 12 -26 32 7 11 12 57 13 102 2 95 10 114 37 89 10
-9 19 -25 19 -34z m-1802 2 c10 -10 31 -26 48 -37 128 -81 153 -101 157 -121
3 -19 -2 -23 -35 -28 -24 -4 -41 -13 -44 -24 -3 -9 -12 -29 -20 -44 -8 -14
-14 -35 -14 -46 0 -27 -10 -52 -21 -52 -5 0 -9 15 -9 33 0 36 -26 97 -41 97
-13 0 -11 -42 5 -88 16 -46 8 -62 -33 -62 -46 1 -61 21 -60 81 2 75 1 77 -18
82 -121 33 -130 39 -98 71 8 8 15 21 15 29 0 8 6 20 14 27 8 6 12 18 9 26 -3
9 2 14 14 14 11 0 28 10 39 21 17 19 47 37 67 38 4 1 15 -7 25 -17z m1362 -33
c0 -5 8 -9 18 -9 10 0 41 -24 70 -53 48 -49 51 -54 38 -72 -16 -22 -12 -21
-116 -23 -71 -2 -77 -4 -92 -29 -8 -16 -21 -52 -28 -81 -10 -45 -15 -53 -34
-50 -17 2 -21 9 -18 38 3 47 -8 64 -32 47 -18 -13 -18 -15 -1 -40 20 -31 12
-67 -14 -67 -30 0 -39 21 -43 97 -2 52 -9 77 -22 92 -15 17 -16 23 -6 36 7 8
17 15 22 15 9 0 138 87 148 100 3 3 15 13 28 22 21 14 27 14 53 1 16 -8 29
-19 29 -24z m-1932 -68 c-3 -74 -5 -88 -18 -83 -23 8 -30 23 -30 65 0 40 26
107 41 107 5 0 8 -40 7 -89z m2462 -18 c0 -54 -10 -83 -28 -83 -12 0 -14 9 -8
46 3 26 6 60 6 76 0 26 2 28 15 14 8 -8 15 -32 15 -53z m-1054 38 c5 -5 32
-21 59 -36 89 -49 105 -75 45 -73 -46 2 -78 -34 -91 -104 -9 -46 -15 -58 -30
-58 -22 0 -23 10 -9 61 8 30 7 44 -9 79 -31 70 -5 169 35 131z m-1098 -139
c-7 -15 -18 -34 -25 -43 -7 -8 -13 -32 -13 -52 0 -29 -4 -37 -18 -37 -15 0
-18 10 -17 82 1 79 2 82 25 89 14 3 33 2 42 -3 15 -7 16 -13 6 -36z m1870 -13
c-12 -16 -30 -29 -40 -29 -22 0 -23 -23 -2 -55 13 -20 14 -28 4 -40 -15 -18
-42 -19 -58 -3 -7 7 -12 42 -12 86 0 72 1 74 23 69 12 -4 28 -3 35 2 7 4 26 6
42 3 l29 -4 -21 -29z m42 -75 c-9 -42 -15 -54 -27 -50 -8 3 -17 6 -19 6 -2 0
-4 14 -4 31 0 21 9 40 28 58 15 14 28 23 30 19 2 -4 -2 -33 -8 -64z"/>
</g>
</svg>
